<svg xmlns="http://www.w3.org/2000/svg" xmlns:xlink="http://www.w3.org/1999/xlink" width="800" zoomAndPan="magnify" viewBox="0 0 600 149.999998" height="200" preserveAspectRatio="xMidYMid meet" version="1.0"><defs><clipPath id="bf9e59623d"><path d="M 111 0 L 124.960938 0 L 124.960938 27 L 111 27 Z M 111 0 " clip-rule="nonzero"/></clipPath><clipPath id="38c64f7d5b"><path d="M 121 26 L 123 26 L 123 47.960938 L 121 47.960938 Z M 121 26 " clip-rule="nonzero"/></clipPath><clipPath id="6c6e09d756"><path d="M 117 30 L 119 30 L 119 47.960938 L 117 47.960938 Z M 117 30 " clip-rule="nonzero"/></clipPath><clipPath id="5e08eba74b"><path d="M 113 29 L 115 29 L 115 47.960938 L 113 47.960938 Z M 113 29 " clip-rule="nonzero"/></clipPath><clipPath id="d115278010"><path d="M 475 0 L 488.351562 0 L 488.351562 19 L 475 19 Z M 475 0 " clip-rule="nonzero"/></clipPath><clipPath id="04719f0d42"><path d="M 458.519531 0 L 473 0 L 473 27 L 458.519531 27 Z M 458.519531 0 " clip-rule="nonzero"/></clipPath><clipPath id="c7780c29d6"><path d="M 461 26 L 463 26 L 463 47.960938 L 461 47.960938 Z M 461 26 " clip-rule="nonzero"/></clipPath><clipPath id="9746a4edca"><path d="M 464 30 L 466 30 L 466 47.960938 L 464 47.960938 Z M 464 30 " clip-rule="nonzero"/></clipPath><clipPath id="0df209ef89"><path d="M 469 29 L 471 29 L 471 47.960938 L 469 47.960938 Z M 469 29 " clip-rule="nonzero"/></clipPath></defs><path fill="#a48000" d="M 97.085938 13.445312 C 97.28125 13.484375 97.476562 13.519531 97.671875 13.554688 C 97.195312 14.515625 96.933594 15.46875 96.636719 16.449219 C 96.25 16.085938 96.824219 13.394531 97.085938 13.445312 " fill-opacity="1" fill-rule="nonzero"/><path fill="#a48000" d="M 99.210938 17.992188 C 99.203125 17.914062 99.210938 17.8125 99.304688 17.757812 C 99.351562 17.726562 99.410156 17.722656 99.464844 17.714844 C 99.574219 17.707031 99.6875 17.695312 99.800781 17.6875 C 99.828125 17.683594 99.855469 17.679688 99.875 17.695312 C 99.890625 17.710938 99.886719 17.734375 99.886719 17.757812 C 99.753906 18.617188 99.765625 19.445312 99.800781 20.277344 C 99.390625 19.574219 99.277344 18.824219 99.210938 17.992188 " fill-opacity="1" fill-rule="nonzero"/><path fill="#a48000" d="M 104.117188 17.207031 C 104.324219 17.121094 104.542969 17.054688 104.761719 17.011719 C 105.117188 16.941406 104.964844 19.742188 104.679688 19.984375 C 104.609375 19.074219 104.472656 18.066406 104.117188 17.207031 " fill-opacity="1" fill-rule="nonzero"/><path fill="#a48000" d="M 106.117188 13.566406 C 106.289062 13.507812 106.445312 13.410156 106.578125 13.28125 C 106.636719 13.222656 107.082031 14.34375 107.101562 14.449219 C 107.195312 14.882812 107.207031 15.367188 107.082031 15.796875 C 106.9375 15.015625 106.511719 14.238281 106.117188 13.566406 " fill-opacity="1" fill-rule="nonzero"/><path fill="#ece4db" d="M 97.785156 10.960938 C 97.800781 11.101562 97.816406 11.253906 97.757812 11.382812 C 97.691406 11.539062 97.535156 11.632812 97.394531 11.722656 C 96.675781 12.199219 96.125 13.0625 96.257812 13.941406 C 96.378906 14.722656 97.128906 15.273438 97.882812 15.148438 C 97.988281 15.132812 98.070312 15.242188 98.027344 15.34375 C 97.757812 16 97.78125 16.789062 98.132812 17.410156 C 98.535156 18.113281 99.226562 18.472656 100.003906 18.34375 C 100.695312 18.230469 101.253906 17.835938 101.539062 17.082031 C 101.578125 16.972656 101.722656 16.960938 101.777344 17.0625 C 102.335938 18.050781 103.328125 18.421875 103.925781 18.375 C 104.832031 18.308594 105.320312 17.820312 105.640625 17.210938 C 106.0625 16.40625 105.957031 15.617188 105.535156 14.847656 C 105.480469 14.746094 105.558594 14.628906 105.667969 14.640625 C 106.335938 14.734375 107.066406 14.375 107.3125 13.75 C 107.597656 13.027344 107.300781 12.160156 106.757812 11.613281 C 106.300781 11.148438 106 10.953125 105.476562 10.785156 C 105.292969 10.722656 105.164062 10.546875 105.160156 10.347656 C 105.148438 9.53125 105.164062 8.953125 105.207031 8.085938 C 105.25 7.285156 105.269531 6.484375 105.269531 5.679688 C 105.261719 0.449219 105.46875 -4.175781 105.777344 -9.394531 C 105.785156 -9.503906 105.773438 -9.621094 105.765625 -9.730469 C 105.757812 -9.816406 105.738281 -9.910156 105.679688 -9.976562 C 105.621094 -10.042969 105.527344 -10.074219 105.441406 -10.089844 C 105.066406 -10.148438 104.695312 -10.210938 104.3125 -10.183594 C 103.820312 -10.191406 103.328125 -10.191406 102.839844 -10.183594 C 101.859375 -10.164062 100.882812 -10.121094 99.90625 -10.085938 C 99.644531 -10.078125 99.386719 -10.066406 99.125 -10.0625 C 98.035156 -10.03125 96.949219 -9.980469 95.863281 -9.910156 C 95.207031 -9.867188 94.957031 -9.898438 95.019531 -9.261719 C 95.117188 -8.339844 95.308594 -7.863281 95.449219 -6.90625 C 95.617188 -5.757812 95.78125 -4.609375 95.945312 -3.457031 C 96.265625 -1.179688 96.570312 1.097656 96.863281 3.378906 C 97.1875 5.90625 97.492188 8.433594 97.785156 10.960938 " fill-opacity="1" fill-rule="nonzero"/><path fill="#a48000" d="M 121.550781 22.109375 C 121.355469 22.136719 121.160156 22.160156 120.964844 22.1875 C 121.386719 23.171875 121.597656 24.136719 121.839844 25.128906 C 122.246094 24.789062 121.820312 22.074219 121.550781 22.109375 " fill-opacity="1" fill-rule="nonzero"/><path fill="#a48000" d="M 119.183594 26.535156 C 119.195312 26.457031 119.195312 26.355469 119.105469 26.296875 C 119.058594 26.261719 119 26.253906 118.945312 26.246094 C 118.835938 26.230469 118.722656 26.214844 118.613281 26.199219 C 118.585938 26.195312 118.554688 26.191406 118.539062 26.203125 C 118.519531 26.214844 118.523438 26.242188 118.523438 26.265625 C 118.609375 27.132812 118.554688 27.957031 118.46875 28.785156 C 118.917969 28.105469 119.074219 27.363281 119.183594 26.535156 " fill-opacity="1" fill-rule="nonzero"/><path fill="#a48000" d="M 114.328125 25.488281 C 114.125 25.390625 113.910156 25.316406 113.695312 25.261719 C 113.34375 25.167969 113.34375 27.976562 113.613281 28.234375 C 113.734375 27.328125 113.925781 26.328125 114.328125 25.488281 " fill-opacity="1" fill-rule="nonzero"/><path fill="#a48000" d="M 112.53125 21.746094 C 112.363281 21.679688 112.210938 21.574219 112.085938 21.4375 C 112.027344 21.375 111.523438 22.472656 111.496094 22.578125 C 111.382812 23.003906 111.34375 23.488281 111.445312 23.921875 C 111.632812 23.148438 112.097656 22.398438 112.53125 21.746094 " fill-opacity="1" fill-rule="nonzero"/><g clip-path="url(#bf9e59623d)"><path fill="#ece4db" d="M 120.992188 19.589844 C 120.96875 19.730469 120.945312 19.878906 120.996094 20.011719 C 121.054688 20.171875 121.203125 20.273438 121.339844 20.371094 C 122.03125 20.886719 122.535156 21.777344 122.351562 22.648438 C 122.191406 23.421875 121.410156 23.933594 120.664062 23.769531 C 120.558594 23.746094 120.476562 23.851562 120.511719 23.953125 C 120.746094 24.625 120.675781 25.410156 120.292969 26.007812 C 119.851562 26.691406 119.140625 27.015625 118.371094 26.84375 C 117.691406 26.691406 117.152344 26.269531 116.910156 25.5 C 116.875 25.390625 116.734375 25.375 116.671875 25.46875 C 116.0625 26.425781 115.050781 26.742188 114.457031 26.667969 C 113.554688 26.550781 113.09375 26.035156 112.808594 25.410156 C 112.429688 24.585938 112.578125 23.800781 113.042969 23.054688 C 113.101562 22.960938 113.03125 22.835938 112.921875 22.84375 C 112.25 22.898438 111.535156 22.503906 111.324219 21.867188 C 111.082031 21.128906 111.425781 20.28125 111.996094 19.761719 C 112.480469 19.320312 112.789062 19.144531 113.320312 19.003906 C 113.507812 18.953125 113.644531 18.78125 113.660156 18.582031 C 113.714844 17.769531 113.734375 17.191406 113.738281 16.320312 C 113.738281 15.519531 113.761719 14.71875 113.808594 13.917969 C 114.097656 8.695312 114.144531 4.066406 114.121094 -1.164062 C 114.121094 -1.273438 114.140625 -1.386719 114.152344 -1.496094 C 114.164062 -1.582031 114.1875 -1.675781 114.25 -1.738281 C 114.3125 -1.804688 114.40625 -1.828125 114.496094 -1.835938 C 114.875 -1.875 115.246094 -1.921875 115.625 -1.871094 C 116.117188 -1.855469 116.609375 -1.828125 117.097656 -1.792969 C 118.074219 -1.722656 119.046875 -1.625 120.023438 -1.539062 C 120.28125 -1.515625 120.539062 -1.492188 120.800781 -1.472656 C 121.886719 -1.382812 122.96875 -1.277344 124.050781 -1.148438 C 124.703125 -1.070312 124.953125 -1.089844 124.855469 -0.457031 C 124.707031 0.460938 124.492188 0.925781 124.296875 1.875 C 124.066406 3.011719 123.839844 4.152344 123.617188 5.289062 C 123.171875 7.546875 122.742188 9.808594 122.324219 12.070312 C 121.863281 14.574219 121.421875 17.082031 120.992188 19.589844 " fill-opacity="1" fill-rule="nonzero"/></g><g clip-path="url(#38c64f7d5b)"><path fill="#a48000" d="M 121.160156 47.402344 C 121.539062 45.664062 121.761719 43.894531 121.855469 42.117188 C 121.945312 40.339844 121.910156 38.554688 121.738281 36.78125 C 121.695312 36.339844 121.648438 35.910156 121.679688 35.488281 C 121.695312 35.277344 121.730469 35.0625 121.761719 34.847656 C 121.800781 34.628906 121.832031 34.40625 121.863281 34.183594 C 121.878906 34.074219 121.890625 33.964844 121.90625 33.851562 L 121.941406 33.519531 L 121.972656 33.1875 C 121.984375 33.074219 121.996094 32.964844 122.003906 32.851562 C 122.039062 32.40625 122.058594 31.960938 122.070312 31.515625 C 122.117188 29.734375 122.007812 27.960938 121.855469 26.195312 C 121.84375 27.082031 121.851562 27.96875 121.839844 28.851562 C 121.832031 29.296875 121.828125 29.738281 121.8125 30.179688 L 121.789062 30.84375 C 121.777344 31.0625 121.769531 31.285156 121.753906 31.503906 C 121.695312 32.382812 121.621094 33.261719 121.484375 34.132812 L 121.429688 34.457031 C 121.414062 34.566406 121.394531 34.671875 121.375 34.785156 C 121.339844 35.003906 121.300781 35.226562 121.28125 35.457031 C 121.261719 35.691406 121.265625 35.921875 121.277344 36.148438 C 121.292969 36.375 121.316406 36.601562 121.335938 36.820312 C 121.503906 38.574219 121.570312 40.339844 121.539062 42.105469 C 121.503906 43.875 121.371094 45.636719 121.160156 47.402344 " fill-opacity="1" fill-rule="nonzero"/></g><g clip-path="url(#6c6e09d756)"><path fill="#a48000" d="M 117.589844 48.226562 C 117.8125 46.722656 117.996094 45.21875 118.164062 43.714844 L 118.226562 43.148438 L 118.285156 42.582031 L 118.402344 41.453125 C 118.441406 41.074219 118.476562 40.699219 118.511719 40.320312 C 118.542969 39.941406 118.570312 39.5625 118.597656 39.183594 C 118.648438 38.425781 118.679688 37.664062 118.691406 36.90625 L 118.695312 36.335938 L 118.691406 35.765625 C 118.691406 35.574219 118.691406 35.386719 118.6875 35.195312 L 118.671875 34.628906 C 118.628906 33.109375 118.535156 31.597656 118.398438 30.085938 C 118.367188 31.601562 118.371094 33.117188 118.355469 34.628906 C 118.339844 36.140625 118.292969 37.652344 118.195312 39.15625 C 118.144531 39.910156 118.082031 40.664062 118.023438 41.417969 C 117.964844 42.175781 117.898438 42.929688 117.847656 43.683594 C 117.742188 45.195312 117.644531 46.710938 117.589844 48.226562 " fill-opacity="1" fill-rule="nonzero"/></g><g clip-path="url(#5e08eba74b)"><path fill="#a48000" d="M 114.058594 47.761719 C 114.0625 46.988281 114 46.21875 113.929688 45.449219 L 113.820312 44.300781 C 113.785156 43.917969 113.75 43.535156 113.726562 43.15625 L 113.707031 42.867188 L 113.699219 42.726562 L 113.695312 42.582031 L 113.683594 42.296875 L 113.679688 42.011719 C 113.675781 41.917969 113.679688 41.820312 113.679688 41.726562 C 113.683594 41.632812 113.679688 41.535156 113.683594 41.441406 C 113.695312 41.253906 113.699219 41.0625 113.714844 40.875 C 113.773438 40.117188 113.890625 39.359375 113.972656 38.585938 C 114.011719 38.199219 114.039062 37.808594 114.042969 37.417969 C 114.050781 37.023438 114.035156 36.632812 114.003906 36.246094 C 113.976562 35.859375 113.933594 35.472656 113.882812 35.089844 C 113.859375 34.898438 113.835938 34.707031 113.808594 34.515625 L 113.726562 33.945312 C 113.675781 33.5625 113.625 33.183594 113.578125 32.804688 C 113.535156 32.421875 113.496094 32.042969 113.476562 31.660156 C 113.433594 30.898438 113.460938 30.128906 113.59375 29.371094 C 113.371094 30.109375 113.289062 30.890625 113.277344 31.664062 C 113.277344 32.054688 113.289062 32.441406 113.316406 32.828125 C 113.339844 33.214844 113.378906 33.597656 113.414062 33.980469 L 113.53125 35.128906 C 113.570312 35.511719 113.601562 35.890625 113.625 36.273438 C 113.644531 36.652344 113.65625 37.03125 113.644531 37.410156 C 113.636719 37.789062 113.609375 38.164062 113.566406 38.546875 C 113.53125 38.925781 113.480469 39.304688 113.4375 39.6875 C 113.394531 40.074219 113.355469 40.460938 113.332031 40.847656 C 113.292969 41.628906 113.328125 42.410156 113.410156 43.179688 C 113.574219 44.722656 113.890625 46.226562 114.058594 47.761719 " fill-opacity="1" fill-rule="nonzero"/></g><path fill="#a48000" d="M 111.464844 46.039062 C 111.40625 44.253906 111.304688 42.46875 111.328125 40.691406 C 111.339844 39.804688 111.378906 38.917969 111.464844 38.035156 C 111.554688 37.152344 111.6875 36.273438 111.789062 35.382812 C 111.84375 34.933594 111.882812 34.488281 111.914062 34.039062 C 111.925781 33.816406 111.941406 33.589844 111.949219 33.367188 C 111.957031 33.140625 111.96875 32.917969 111.96875 32.691406 C 111.972656 32.46875 111.976562 32.246094 111.972656 32.019531 L 111.972656 31.683594 C 111.972656 31.570312 111.96875 31.460938 111.964844 31.347656 L 111.960938 31.011719 L 111.949219 30.675781 L 111.933594 30.339844 L 111.914062 30.003906 C 111.816406 28.214844 111.609375 26.441406 111.363281 24.671875 C 111.441406 26.457031 111.558594 28.238281 111.597656 30.015625 C 111.636719 31.796875 111.59375 33.574219 111.386719 35.335938 C 111.339844 35.777344 111.28125 36.21875 111.226562 36.664062 C 111.175781 37.105469 111.121094 37.550781 111.085938 38 C 111.050781 38.449219 111.023438 38.898438 111.015625 39.347656 C 111.007812 39.570312 111.007812 39.796875 111.003906 40.019531 L 111.007812 40.355469 C 111.007812 40.46875 111.007812 40.582031 111.011719 40.691406 L 111.019531 41.027344 L 111.035156 41.363281 C 111.039062 41.589844 111.054688 41.8125 111.066406 42.035156 C 111.097656 42.480469 111.128906 42.929688 111.167969 43.375 C 111.25 44.265625 111.347656 45.152344 111.464844 46.039062 " fill-opacity="1" fill-rule="nonzero"/><path fill="#a48000" d="M 107.703125 35.558594 C 107.570312 34.773438 107.476562 33.984375 107.410156 33.191406 C 107.351562 32.398438 107.308594 31.605469 107.292969 30.808594 C 107.261719 29.222656 107.296875 27.632812 107.324219 26.050781 C 107.339844 25.257812 107.351562 24.46875 107.351562 23.675781 L 107.351562 23.085938 L 107.34375 22.492188 C 107.34375 22.292969 107.332031 22.097656 107.324219 21.898438 L 107.304688 21.304688 L 107.234375 18.929688 C 107.214844 18.136719 107.191406 17.34375 107.191406 16.550781 C 107.28125 17.339844 107.355469 18.128906 107.429688 18.917969 L 107.535156 20.101562 C 107.566406 20.5 107.59375 20.894531 107.621094 21.292969 C 107.648438 21.6875 107.683594 22.082031 107.699219 22.480469 L 107.71875 23.078125 L 107.734375 23.671875 L 107.742188 23.972656 L 107.742188 24.867188 C 107.738281 25.261719 107.738281 25.660156 107.730469 26.058594 C 107.703125 27.644531 107.632812 29.226562 107.609375 30.808594 L 107.601562 31.402344 L 107.597656 31.996094 C 107.597656 32.09375 107.597656 32.195312 107.597656 32.292969 L 107.597656 32.589844 C 107.601562 32.785156 107.601562 32.984375 107.605469 33.183594 C 107.617188 33.972656 107.660156 34.765625 107.703125 35.558594 " fill-opacity="1" fill-rule="nonzero"/><path fill="#a48000" d="M 104.882812 37.738281 C 104.726562 36.3125 104.605469 34.882812 104.554688 33.445312 C 104.5 32.007812 104.523438 30.5625 104.667969 29.125 L 104.78125 28.058594 C 104.820312 27.703125 104.851562 27.351562 104.867188 27 C 104.898438 26.292969 104.863281 25.582031 104.835938 24.863281 C 104.78125 23.433594 104.738281 22 104.734375 20.5625 C 104.90625 21.988281 105.035156 23.417969 105.152344 24.847656 L 105.195312 25.382812 C 105.207031 25.5625 105.21875 25.742188 105.230469 25.921875 C 105.25 26.285156 105.257812 26.644531 105.25 27.011719 C 105.242188 27.375 105.214844 27.738281 105.179688 28.097656 L 105.070312 29.164062 C 104.925781 30.582031 104.882812 32.007812 104.871094 33.441406 C 104.859375 34.871094 104.890625 36.304688 104.882812 37.738281 " fill-opacity="1" fill-rule="nonzero"/><path fill="#a48000" d="M 100.0625 39.363281 C 100.050781 37.8125 100.082031 36.265625 100.058594 34.71875 C 100.054688 34.527344 100.054688 34.332031 100.046875 34.140625 L 100.03125 33.5625 C 100.019531 33.175781 100 32.789062 99.980469 32.40625 C 99.933594 31.636719 99.859375 30.871094 99.78125 30.097656 C 99.746094 29.710938 99.710938 29.324219 99.683594 28.933594 C 99.660156 28.546875 99.644531 28.152344 99.648438 27.761719 C 99.652344 27.367188 99.675781 26.972656 99.726562 26.582031 C 99.75 26.386719 99.78125 26.191406 99.8125 26 C 99.847656 25.804688 99.886719 25.617188 99.921875 25.425781 C 99.996094 25.046875 100.0625 24.667969 100.101562 24.289062 C 100.140625 23.914062 100.148438 23.527344 100.136719 23.144531 C 100.117188 22.375 100.011719 21.609375 99.925781 20.835938 C 100.101562 21.59375 100.257812 22.355469 100.335938 23.132812 C 100.371094 23.523438 100.382812 23.917969 100.367188 24.308594 C 100.347656 24.703125 100.289062 25.09375 100.234375 25.476562 C 100.203125 25.671875 100.175781 25.859375 100.148438 26.050781 C 100.121094 26.242188 100.097656 26.429688 100.078125 26.621094 C 100.039062 27 100.027344 27.378906 100.03125 27.761719 C 100.039062 28.144531 100.054688 28.523438 100.085938 28.910156 C 100.113281 29.292969 100.148438 29.675781 100.183594 30.0625 C 100.222656 30.445312 100.261719 30.832031 100.289062 31.21875 C 100.308594 31.414062 100.316406 31.609375 100.332031 31.804688 C 100.34375 32 100.351562 32.191406 100.359375 32.386719 C 100.375 32.777344 100.382812 33.164062 100.386719 33.554688 C 100.390625 33.941406 100.382812 34.332031 100.375 34.71875 C 100.339844 36.273438 100.21875 37.820312 100.0625 39.363281 " fill-opacity="1" fill-rule="nonzero"/><path fill="#a48000" d="M 97.195312 38.5625 C 97.082031 37.675781 97.054688 36.785156 97.078125 35.894531 C 97.085938 35.671875 97.089844 35.453125 97.101562 35.230469 C 97.113281 35.007812 97.121094 34.785156 97.136719 34.5625 C 97.164062 34.117188 97.195312 33.671875 97.226562 33.226562 L 97.269531 32.558594 C 97.285156 32.335938 97.296875 32.109375 97.304688 31.886719 L 97.320312 31.550781 L 97.332031 31.214844 C 97.339844 30.988281 97.339844 30.765625 97.339844 30.539062 C 97.34375 30.425781 97.339844 30.3125 97.335938 30.203125 L 97.328125 29.863281 C 97.320312 29.636719 97.308594 29.414062 97.292969 29.1875 C 97.261719 28.738281 97.21875 28.292969 97.175781 27.851562 C 97.089844 26.960938 97.015625 26.082031 97.03125 25.199219 C 97.035156 24.753906 97.050781 24.308594 97.0625 23.859375 C 97.066406 23.636719 97.070312 23.410156 97.066406 23.1875 C 97.0625 22.960938 97.054688 22.734375 97.039062 22.507812 C 97.003906 22.054688 96.945312 21.609375 96.875 21.167969 C 96.804688 20.722656 96.726562 20.285156 96.664062 19.84375 C 96.59375 19.40625 96.539062 18.964844 96.515625 18.519531 L 96.503906 18.1875 L 96.507812 17.855469 L 96.527344 17.519531 L 96.5625 17.1875 L 96.496094 17.515625 L 96.449219 17.847656 L 96.417969 18.183594 L 96.40625 18.523438 C 96.394531 18.972656 96.425781 19.421875 96.464844 19.867188 C 96.507812 20.316406 96.5625 20.757812 96.613281 21.199219 C 96.660156 21.644531 96.707031 22.085938 96.722656 22.523438 C 96.730469 22.746094 96.730469 22.964844 96.726562 23.1875 C 96.722656 23.40625 96.714844 23.628906 96.707031 23.851562 C 96.6875 24.292969 96.660156 24.742188 96.648438 25.191406 C 96.632812 25.640625 96.640625 26.097656 96.667969 26.546875 C 96.691406 26.996094 96.730469 27.441406 96.773438 27.886719 C 96.816406 28.332031 96.859375 28.773438 96.894531 29.21875 C 96.914062 29.4375 96.925781 29.660156 96.9375 29.878906 L 96.949219 30.210938 C 96.953125 30.320312 96.957031 30.433594 96.957031 30.542969 C 96.960938 30.765625 96.964844 30.984375 96.960938 31.207031 L 96.960938 31.539062 L 96.953125 31.875 C 96.941406 32.320312 96.925781 32.765625 96.910156 33.210938 L 96.890625 33.882812 L 96.878906 34.214844 L 96.871094 34.550781 C 96.867188 34.777344 96.871094 35 96.867188 35.222656 C 96.867188 35.335938 96.871094 35.449219 96.871094 35.5625 C 96.875 35.671875 96.875 35.785156 96.878906 35.898438 C 96.910156 36.792969 96.996094 37.691406 97.195312 38.5625 " fill-opacity="1" fill-rule="nonzero"/><path fill="#a48000" d="M 486.226562 13.445312 C 486.03125 13.484375 485.835938 13.519531 485.644531 13.554688 C 486.117188 14.515625 486.382812 15.46875 486.679688 16.449219 C 487.0625 16.085938 486.492188 13.394531 486.226562 13.445312 " fill-opacity="1" fill-rule="nonzero"/><path fill="#a48000" d="M 484.105469 17.992188 C 484.109375 17.914062 484.101562 17.8125 484.011719 17.757812 C 483.960938 17.726562 483.90625 17.722656 483.851562 17.714844 C 483.738281 17.707031 483.625 17.695312 483.515625 17.6875 C 483.488281 17.683594 483.457031 17.679688 483.441406 17.695312 C 483.421875 17.710938 483.425781 17.734375 483.429688 17.757812 C 483.5625 18.617188 483.550781 19.445312 483.511719 20.277344 C 483.925781 19.574219 484.039062 18.824219 484.105469 17.992188 " fill-opacity="1" fill-rule="nonzero"/><path fill="#a48000" d="M 479.199219 17.207031 C 478.988281 17.121094 478.773438 17.054688 478.554688 17.011719 C 478.199219 16.941406 478.351562 19.742188 478.632812 19.984375 C 478.703125 19.074219 478.839844 18.066406 479.199219 17.207031 " fill-opacity="1" fill-rule="nonzero"/><path fill="#a48000" d="M 477.195312 13.566406 C 477.027344 13.507812 476.871094 13.410156 476.738281 13.28125 C 476.675781 13.222656 476.234375 14.34375 476.210938 14.449219 C 476.121094 14.882812 476.109375 15.367188 476.234375 15.796875 C 476.378906 15.015625 476.804688 14.238281 477.195312 13.566406 " fill-opacity="1" fill-rule="nonzero"/><g clip-path="url(#d115278010)"><path fill="#ece4db" d="M 485.53125 10.960938 C 485.515625 11.101562 485.5 11.253906 485.554688 11.382812 C 485.625 11.539062 485.78125 11.632812 485.917969 11.722656 C 486.640625 12.199219 487.191406 13.0625 487.054688 13.941406 C 486.9375 14.722656 486.183594 15.273438 485.429688 15.148438 C 485.324219 15.132812 485.246094 15.242188 485.285156 15.34375 C 485.558594 16 485.53125 16.789062 485.179688 17.410156 C 484.777344 18.113281 484.085938 18.472656 483.308594 18.34375 C 482.621094 18.230469 482.058594 17.835938 481.777344 17.082031 C 481.734375 16.972656 481.59375 16.960938 481.535156 17.0625 C 480.980469 18.050781 479.988281 18.421875 479.390625 18.375 C 478.484375 18.308594 477.992188 17.820312 477.675781 17.210938 C 477.253906 16.40625 477.359375 15.617188 477.78125 14.847656 C 477.835938 14.746094 477.757812 14.628906 477.648438 14.640625 C 476.980469 14.734375 476.246094 14.375 476 13.75 C 475.71875 13.027344 476.015625 12.160156 476.558594 11.613281 C 477.015625 11.148438 477.3125 10.953125 477.835938 10.785156 C 478.023438 10.722656 478.148438 10.546875 478.152344 10.347656 C 478.164062 9.53125 478.152344 8.953125 478.105469 8.085938 C 478.066406 7.285156 478.046875 6.484375 478.046875 5.679688 C 478.050781 0.449219 477.84375 -4.175781 477.535156 -9.394531 C 477.53125 -9.503906 477.542969 -9.621094 477.550781 -9.730469 C 477.554688 -9.816406 477.578125 -9.910156 477.632812 -9.976562 C 477.695312 -10.042969 477.785156 -10.074219 477.875 -10.089844 C 478.25 -10.148438 478.617188 -10.210938 479 -10.183594 C 479.492188 -10.191406 479.984375 -10.191406 480.476562 -10.183594 C 481.453125 -10.164062 482.433594 -10.121094 483.410156 -10.085938 C 483.667969 -10.078125 483.929688 -10.066406 484.1875 -10.0625 C 485.277344 -10.03125 486.367188 -9.980469 487.453125 -9.910156 C 488.109375 -9.867188 488.359375 -9.898438 488.292969 -9.261719 C 488.199219 -8.339844 488.003906 -7.863281 487.863281 -6.90625 C 487.695312 -5.757812 487.53125 -4.609375 487.371094 -3.457031 C 487.050781 -1.179688 486.742188 1.097656 486.453125 3.378906 C 486.128906 5.90625 485.820312 8.433594 485.53125 10.960938 " fill-opacity="1" fill-rule="nonzero"/></g><path fill="#a48000" d="M 461.761719 22.109375 C 461.957031 22.136719 462.15625 22.160156 462.351562 22.1875 C 461.929688 23.171875 461.71875 24.136719 461.472656 25.128906 C 461.070312 24.789062 461.496094 22.074219 461.761719 22.109375 " fill-opacity="1" fill-rule="nonzero"/><path fill="#a48000" d="M 464.128906 26.535156 C 464.121094 26.457031 464.121094 26.355469 464.210938 26.296875 C 464.257812 26.261719 464.3125 26.253906 464.367188 26.246094 C 464.480469 26.230469 464.589844 26.214844 464.703125 26.199219 C 464.730469 26.195312 464.757812 26.191406 464.777344 26.203125 C 464.792969 26.214844 464.792969 26.242188 464.789062 26.265625 C 464.707031 27.132812 464.761719 27.957031 464.84375 28.785156 C 464.394531 28.105469 464.242188 27.363281 464.128906 26.535156 " fill-opacity="1" fill-rule="nonzero"/><path fill="#a48000" d="M 468.984375 25.488281 C 469.191406 25.390625 469.402344 25.316406 469.617188 25.261719 C 469.96875 25.167969 469.96875 27.976562 469.699219 28.234375 C 469.582031 27.328125 469.390625 26.328125 468.984375 25.488281 " fill-opacity="1" fill-rule="nonzero"/><path fill="#a48000" d="M 470.785156 21.746094 C 470.953125 21.679688 471.105469 21.574219 471.226562 21.4375 C 471.285156 21.375 471.789062 22.472656 471.816406 22.578125 C 471.933594 23.003906 471.972656 23.488281 471.871094 23.921875 C 471.679688 23.148438 471.214844 22.398438 470.785156 21.746094 " fill-opacity="1" fill-rule="nonzero"/><g clip-path="url(#04719f0d42)"><path fill="#ece4db" d="M 462.320312 19.589844 C 462.34375 19.730469 462.371094 19.878906 462.320312 20.011719 C 462.261719 20.171875 462.109375 20.273438 461.976562 20.371094 C 461.28125 20.886719 460.78125 21.777344 460.960938 22.648438 C 461.121094 23.421875 461.902344 23.933594 462.652344 23.769531 C 462.753906 23.746094 462.839844 23.851562 462.804688 23.953125 C 462.570312 24.625 462.636719 25.410156 463.023438 26.007812 C 463.464844 26.691406 464.171875 27.015625 464.941406 26.84375 C 465.625 26.691406 466.164062 26.269531 466.40625 25.5 C 466.441406 25.390625 466.582031 25.375 466.644531 25.46875 C 467.253906 26.425781 468.265625 26.742188 468.859375 26.667969 C 469.757812 26.550781 470.222656 26.035156 470.507812 25.410156 C 470.882812 24.585938 470.734375 23.800781 470.273438 23.054688 C 470.214844 22.960938 470.285156 22.835938 470.394531 22.84375 C 471.066406 22.898438 471.777344 22.503906 471.988281 21.867188 C 472.234375 21.128906 471.886719 20.28125 471.320312 19.761719 C 470.835938 19.320312 470.527344 19.144531 469.996094 19.003906 C 469.804688 18.953125 469.667969 18.78125 469.65625 18.582031 C 469.597656 17.769531 469.582031 17.191406 469.578125 16.320312 C 469.574219 15.519531 469.550781 14.71875 469.507812 13.917969 C 469.21875 8.695312 469.171875 4.066406 469.195312 -1.164062 C 469.195312 -1.273438 469.175781 -1.386719 469.160156 -1.496094 C 469.152344 -1.582031 469.125 -1.675781 469.066406 -1.738281 C 469 -1.804688 468.90625 -1.828125 468.820312 -1.835938 C 468.441406 -1.875 468.070312 -1.921875 467.6875 -1.871094 C 467.199219 -1.855469 466.707031 -1.828125 466.214844 -1.792969 C 465.238281 -1.722656 464.265625 -1.625 463.292969 -1.539062 C 463.035156 -1.515625 462.773438 -1.492188 462.515625 -1.472656 C 461.429688 -1.382812 460.34375 -1.277344 459.265625 -1.148438 C 458.613281 -1.070312 458.359375 -1.089844 458.460938 -0.457031 C 458.605469 0.460938 458.824219 0.925781 459.015625 1.875 C 459.246094 3.011719 459.476562 4.152344 459.699219 5.289062 C 460.140625 7.546875 460.574219 9.808594 460.988281 12.070312 C 461.449219 14.574219 461.894531 17.082031 462.320312 19.589844 " fill-opacity="1" fill-rule="nonzero"/></g><g clip-path="url(#c7780c29d6)"><path fill="#a48000" d="M 462.152344 47.402344 C 461.777344 45.664062 461.554688 43.894531 461.460938 42.117188 C 461.367188 40.339844 461.40625 38.554688 461.574219 36.78125 C 461.621094 36.339844 461.667969 35.910156 461.632812 35.488281 C 461.617188 35.277344 461.585938 35.0625 461.550781 34.847656 C 461.515625 34.628906 461.480469 34.40625 461.453125 34.183594 C 461.4375 34.074219 461.421875 33.964844 461.410156 33.851562 L 461.371094 33.519531 L 461.339844 33.1875 C 461.328125 33.074219 461.320312 32.964844 461.3125 32.851562 C 461.273438 32.40625 461.257812 31.960938 461.246094 31.515625 C 461.199219 29.734375 461.308594 27.960938 461.457031 26.195312 C 461.472656 27.082031 461.464844 27.96875 461.476562 28.851562 C 461.480469 29.296875 461.488281 29.738281 461.503906 30.179688 L 461.527344 30.84375 C 461.535156 31.0625 461.546875 31.285156 461.558594 31.503906 C 461.621094 32.382812 461.691406 33.261719 461.832031 34.132812 L 461.882812 34.457031 C 461.902344 34.566406 461.921875 34.671875 461.9375 34.785156 C 461.976562 35.003906 462.011719 35.226562 462.03125 35.457031 C 462.050781 35.691406 462.050781 35.921875 462.035156 36.148438 C 462.023438 36.375 462 36.601562 461.980469 36.820312 C 461.8125 38.574219 461.742188 40.339844 461.777344 42.105469 C 461.808594 43.875 461.941406 45.636719 462.152344 47.402344 " fill-opacity="1" fill-rule="nonzero"/></g><g clip-path="url(#9746a4edca)"><path fill="#a48000" d="M 465.726562 48.226562 C 465.503906 46.722656 465.320312 45.21875 465.152344 43.714844 L 465.027344 42.582031 L 464.910156 41.453125 C 464.871094 41.074219 464.839844 40.699219 464.804688 40.320312 C 464.773438 39.941406 464.742188 39.5625 464.714844 39.183594 C 464.667969 38.425781 464.636719 37.664062 464.625 36.90625 L 464.621094 36.335938 L 464.621094 35.765625 C 464.625 35.574219 464.625 35.386719 464.628906 35.195312 L 464.644531 34.628906 C 464.683594 33.109375 464.78125 31.597656 464.914062 30.085938 C 464.949219 31.601562 464.941406 33.117188 464.960938 34.628906 C 464.976562 36.140625 465.019531 37.652344 465.121094 39.15625 C 465.167969 39.910156 465.230469 40.664062 465.292969 41.417969 C 465.347656 42.175781 465.414062 42.929688 465.464844 43.683594 C 465.574219 45.195312 465.667969 46.710938 465.726562 48.226562 " fill-opacity="1" fill-rule="nonzero"/></g><g clip-path="url(#0df209ef89)"><path fill="#a48000" d="M 469.253906 47.761719 C 469.253906 46.988281 469.316406 46.21875 469.382812 45.449219 L 469.496094 44.300781 C 469.53125 43.917969 469.5625 43.535156 469.589844 43.15625 L 469.605469 42.867188 L 469.613281 42.726562 L 469.617188 42.582031 L 469.628906 42.296875 L 469.632812 42.011719 C 469.636719 41.917969 469.636719 41.820312 469.632812 41.726562 C 469.632812 41.632812 469.632812 41.535156 469.628906 41.441406 C 469.621094 41.253906 469.613281 41.0625 469.597656 40.875 C 469.542969 40.117188 469.425781 39.359375 469.34375 38.585938 C 469.304688 38.199219 469.277344 37.808594 469.269531 37.417969 C 469.265625 37.023438 469.277344 36.632812 469.308594 36.246094 C 469.339844 35.859375 469.382812 35.472656 469.429688 35.089844 C 469.453125 34.898438 469.480469 34.707031 469.503906 34.515625 L 469.585938 33.945312 C 469.640625 33.5625 469.691406 33.183594 469.734375 32.804688 C 469.78125 32.421875 469.816406 32.042969 469.835938 31.660156 C 469.882812 30.898438 469.855469 30.128906 469.71875 29.371094 C 469.945312 30.109375 470.027344 30.890625 470.035156 31.664062 C 470.039062 32.054688 470.023438 32.441406 470 32.828125 C 469.976562 33.214844 469.9375 33.597656 469.898438 33.980469 L 469.78125 35.128906 C 469.746094 35.511719 469.710938 35.890625 469.691406 36.273438 C 469.671875 36.652344 469.660156 37.03125 469.667969 37.410156 C 469.675781 37.789062 469.707031 38.164062 469.746094 38.546875 C 469.785156 38.925781 469.832031 39.304688 469.875 39.6875 C 469.917969 40.074219 469.960938 40.460938 469.980469 40.847656 C 470.019531 41.628906 469.988281 42.410156 469.902344 43.179688 C 469.738281 44.722656 469.421875 46.226562 469.253906 47.761719 " fill-opacity="1" fill-rule="nonzero"/></g><path fill="#a48000" d="M 471.847656 46.039062 C 471.910156 44.253906 472.011719 42.46875 471.988281 40.691406 C 471.976562 39.804688 471.9375 38.917969 471.847656 38.035156 C 471.761719 37.152344 471.628906 36.273438 471.523438 35.382812 C 471.472656 34.933594 471.433594 34.488281 471.402344 34.039062 C 471.390625 33.816406 471.371094 33.589844 471.367188 33.367188 C 471.359375 33.140625 471.347656 32.917969 471.34375 32.691406 C 471.34375 32.46875 471.339844 32.246094 471.339844 32.019531 L 471.34375 31.683594 C 471.34375 31.570312 471.347656 31.460938 471.347656 31.347656 L 471.355469 31.011719 L 471.367188 30.675781 L 471.382812 30.339844 L 471.402344 30.003906 C 471.5 28.214844 471.707031 26.441406 471.953125 24.671875 C 471.871094 26.457031 471.753906 28.238281 471.714844 30.015625 C 471.675781 31.796875 471.71875 33.574219 471.925781 35.335938 C 471.976562 35.777344 472.035156 36.21875 472.089844 36.664062 C 472.140625 37.105469 472.195312 37.550781 472.230469 38 C 472.261719 38.449219 472.289062 38.898438 472.300781 39.347656 C 472.308594 39.570312 472.308594 39.796875 472.3125 40.019531 L 472.308594 40.355469 C 472.308594 40.46875 472.304688 40.582031 472.300781 40.691406 L 472.292969 41.027344 L 472.28125 41.363281 C 472.273438 41.589844 472.261719 41.8125 472.246094 42.035156 C 472.21875 42.480469 472.1875 42.929688 472.148438 43.375 C 472.066406 44.265625 471.964844 45.152344 471.847656 46.039062 " fill-opacity="1" fill-rule="nonzero"/><path fill="#a48000" d="M 475.609375 35.558594 C 475.746094 34.773438 475.839844 33.984375 475.90625 33.191406 C 475.964844 32.398438 476.007812 31.605469 476.019531 30.808594 C 476.054688 29.222656 476.015625 27.632812 475.988281 26.050781 C 475.972656 25.257812 475.964844 24.46875 475.964844 23.675781 L 475.964844 23.085938 L 475.972656 22.492188 C 475.972656 22.292969 475.984375 22.097656 475.992188 21.898438 L 476.007812 21.304688 L 476.082031 18.929688 C 476.101562 18.136719 476.121094 17.34375 476.125 16.550781 C 476.03125 17.339844 475.957031 18.128906 475.882812 18.917969 L 475.78125 20.101562 C 475.75 20.5 475.722656 20.894531 475.691406 21.292969 C 475.667969 21.6875 475.632812 22.082031 475.617188 22.480469 L 475.59375 23.078125 L 475.582031 23.671875 L 475.574219 23.972656 L 475.574219 24.269531 L 475.570312 24.867188 C 475.574219 25.261719 475.578125 25.660156 475.585938 26.058594 C 475.613281 27.644531 475.679688 29.226562 475.707031 30.808594 L 475.714844 31.402344 L 475.714844 31.996094 C 475.71875 32.09375 475.71875 32.195312 475.71875 32.292969 L 475.714844 32.589844 C 475.710938 32.785156 475.714844 32.984375 475.707031 33.183594 C 475.699219 33.972656 475.65625 34.765625 475.609375 35.558594 " fill-opacity="1" fill-rule="nonzero"/><path fill="#a48000" d="M 478.429688 37.738281 C 478.589844 36.3125 478.707031 34.882812 478.757812 33.445312 C 478.8125 32.007812 478.789062 30.5625 478.648438 29.125 L 478.53125 28.058594 C 478.496094 27.703125 478.464844 27.351562 478.449219 27 C 478.417969 26.292969 478.453125 25.582031 478.476562 24.863281 C 478.535156 23.433594 478.578125 22 478.578125 20.5625 C 478.410156 21.988281 478.277344 23.417969 478.160156 24.847656 L 478.117188 25.382812 C 478.105469 25.5625 478.09375 25.742188 478.085938 25.921875 C 478.066406 26.285156 478.054688 26.644531 478.0625 27.011719 C 478.074219 27.375 478.101562 27.738281 478.136719 28.097656 L 478.246094 29.164062 C 478.386719 30.582031 478.433594 32.007812 478.445312 33.441406 C 478.453125 34.871094 478.421875 36.304688 478.429688 37.738281 " fill-opacity="1" fill-rule="nonzero"/><path fill="#a48000" d="M 483.25 39.363281 C 483.261719 37.8125 483.230469 36.265625 483.253906 34.71875 C 483.257812 34.527344 483.261719 34.332031 483.265625 34.140625 L 483.28125 33.5625 C 483.292969 33.175781 483.3125 32.789062 483.335938 32.40625 C 483.378906 31.636719 483.453125 30.871094 483.53125 30.097656 C 483.570312 29.710938 483.605469 29.324219 483.628906 28.933594 C 483.652344 28.546875 483.671875 28.152344 483.664062 27.761719 C 483.660156 27.367188 483.636719 26.972656 483.589844 26.582031 C 483.566406 26.386719 483.535156 26.191406 483.5 26 C 483.464844 25.804688 483.429688 25.617188 483.394531 25.425781 C 483.320312 25.046875 483.253906 24.667969 483.214844 24.289062 C 483.175781 23.914062 483.164062 23.527344 483.179688 23.144531 C 483.195312 22.375 483.300781 21.609375 483.390625 20.835938 C 483.214844 21.59375 483.054688 22.355469 482.980469 23.132812 C 482.941406 23.523438 482.929688 23.917969 482.949219 24.308594 C 482.96875 24.703125 483.023438 25.09375 483.082031 25.476562 C 483.109375 25.671875 483.140625 25.859375 483.164062 26.050781 C 483.191406 26.242188 483.21875 26.429688 483.238281 26.621094 C 483.273438 27 483.285156 27.378906 483.28125 27.761719 C 483.277344 28.144531 483.257812 28.523438 483.230469 28.910156 C 483.203125 29.292969 483.167969 29.675781 483.128906 30.0625 C 483.09375 30.445312 483.054688 30.832031 483.023438 31.21875 C 483.007812 31.414062 482.996094 31.609375 482.984375 31.804688 C 482.972656 32 482.960938 32.191406 482.953125 32.386719 C 482.941406 32.777344 482.929688 33.164062 482.929688 33.554688 C 482.925781 33.941406 482.929688 34.332031 482.941406 34.71875 C 482.976562 36.273438 483.09375 37.820312 483.25 39.363281 " fill-opacity="1" fill-rule="nonzero"/><path fill="#a48000" d="M 486.121094 38.5625 C 486.230469 37.675781 486.261719 36.785156 486.238281 35.894531 C 486.230469 35.671875 486.226562 35.453125 486.214844 35.230469 C 486.203125 35.007812 486.191406 34.785156 486.179688 34.5625 C 486.148438 34.117188 486.121094 33.671875 486.089844 33.226562 L 486.042969 32.558594 C 486.03125 32.335938 486.019531 32.109375 486.007812 31.886719 L 485.992188 31.550781 L 485.984375 31.214844 C 485.976562 30.988281 485.976562 30.765625 485.972656 30.539062 C 485.972656 30.425781 485.976562 30.3125 485.976562 30.203125 L 485.984375 29.863281 C 485.996094 29.636719 486.007812 29.414062 486.023438 29.1875 C 486.054688 28.738281 486.097656 28.292969 486.136719 27.851562 C 486.222656 26.960938 486.296875 26.082031 486.285156 25.199219 C 486.28125 24.753906 486.261719 24.308594 486.253906 23.859375 C 486.25 23.636719 486.246094 23.410156 486.25 23.1875 C 486.253906 22.960938 486.261719 22.734375 486.277344 22.507812 C 486.308594 22.054688 486.367188 21.609375 486.4375 21.167969 C 486.507812 20.722656 486.585938 20.285156 486.652344 19.84375 C 486.722656 19.40625 486.773438 18.964844 486.796875 18.519531 L 486.808594 18.1875 L 486.804688 17.855469 L 486.789062 17.519531 L 486.75 17.1875 L 486.820312 17.515625 L 486.867188 17.847656 L 486.894531 18.183594 L 486.910156 18.523438 C 486.921875 18.972656 486.890625 19.421875 486.851562 19.867188 C 486.808594 20.316406 486.75 20.757812 486.703125 21.199219 C 486.652344 21.644531 486.609375 22.085938 486.59375 22.523438 C 486.585938 22.746094 486.585938 22.964844 486.589844 23.1875 C 486.589844 23.40625 486.597656 23.628906 486.609375 23.851562 C 486.625 24.292969 486.65625 24.742188 486.667969 25.191406 C 486.683594 25.640625 486.671875 26.097656 486.648438 26.546875 C 486.621094 26.996094 486.582031 27.441406 486.542969 27.886719 C 486.5 28.332031 486.453125 28.773438 486.421875 29.21875 C 486.402344 29.4375 486.390625 29.660156 486.378906 29.878906 L 486.367188 30.210938 C 486.363281 30.320312 486.355469 30.433594 486.355469 30.542969 C 486.355469 30.765625 486.347656 30.984375 486.351562 31.207031 L 486.355469 31.539062 L 486.363281 31.875 C 486.375 32.320312 486.390625 32.765625 486.402344 33.210938 L 486.425781 33.882812 L 486.4375 34.214844 L 486.441406 34.550781 C 486.445312 34.777344 486.445312 35 486.445312 35.222656 C 486.445312 35.335938 486.445312 35.449219 486.441406 35.5625 C 486.441406 35.671875 486.441406 35.785156 486.4375 35.898438 C 486.402344 36.792969 486.320312 37.691406 486.121094 38.5625 " fill-opacity="1" fill-rule="nonzero"/></svg>